solid OpenSCAD_Model
  facet normal -1 0 0
    outer loop
      vertex -13 8 -5
      vertex -13 4.5 -3
      vertex -13 8 1
    endloop
  endfacet
  facet normal -1 0 0
    outer loop
      vertex -13 8 -5
      vertex -13 -4.5 -3
      vertex -13 4.5 -3
    endloop
  endfacet
  facet normal -1 0 0
    outer loop
      vertex -13 -8 -5
      vertex -13 -4.5 -3
      vertex -13 8 -5
    endloop
  endfacet
  facet normal -1 0 0
    outer loop
      vertex -13 -8 1
      vertex -13 -4.5 -3
      vertex -13 -8 -5
    endloop
  endfacet
  facet normal -1 0 0
    outer loop
      vertex -13 -4.5 -3
      vertex -13 -8 1
      vertex -13 -4.5 1
    endloop
  endfacet
  facet normal -1 -0 0
    outer loop
      vertex -13 8 1
      vertex -13 4.5 -3
      vertex -13 4.5 1
    endloop
  endfacet
  facet normal 0 0 1
    outer loop
      vertex -11.5 -4.5 1
      vertex -13 -4.5 1
      vertex -11.5 -6.5 1
    endloop
  endfacet
  facet normal 0 0 1
    outer loop
      vertex 13 8 1
      vertex 11.5 6.5 1
      vertex 13 -8 1
    endloop
  endfacet
  facet normal 0 0 1
    outer loop
      vertex 13 8 1
      vertex -11.5 6.5 1
      vertex 11.5 6.5 1
    endloop
  endfacet
  facet normal -0 0 1
    outer loop
      vertex -13 8 1
      vertex -11.5 6.5 1
      vertex 13 8 1
    endloop
  endfacet
  facet normal 0 0 1
    outer loop
      vertex -13 4.5 1
      vertex -11.5 6.5 1
      vertex -13 8 1
    endloop
  endfacet
  facet normal 0 0 1
    outer loop
      vertex -11.5 6.5 1
      vertex -13 4.5 1
      vertex -11.5 4.5 1
    endloop
  endfacet
  facet normal -0 0 1
    outer loop
      vertex 11.5 -6.5 1
      vertex 13 -8 1
      vertex 11.5 6.5 1
    endloop
  endfacet
  facet normal -0 0 1
    outer loop
      vertex -11.5 -6.5 1
      vertex 13 -8 1
      vertex 11.5 -6.5 1
    endloop
  endfacet
  facet normal 0 0 1
    outer loop
      vertex -11.5 -6.5 1
      vertex -13 -8 1
      vertex 13 -8 1
    endloop
  endfacet
  facet normal 0 0 1
    outer loop
      vertex -13 -8 1
      vertex -11.5 -6.5 1
      vertex -13 -4.5 1
    endloop
  endfacet
  facet normal 1 -0 0
    outer loop
      vertex 13 -8 1
      vertex 13 8 -5
      vertex 13 8 1
    endloop
  endfacet
  facet normal 1 0 0
    outer loop
      vertex 13 8 -5
      vertex 13 -8 1
      vertex 13 -8 -5
    endloop
  endfacet
  facet normal 0 1 -0
    outer loop
      vertex 13 8 -5
      vertex -13 8 1
      vertex 13 8 1
    endloop
  endfacet
  facet normal 0 1 0
    outer loop
      vertex -13 8 1
      vertex 13 8 -5
      vertex -13 8 -5
    endloop
  endfacet
  facet normal 0 0 -1
    outer loop
      vertex 13 -8 -5
      vertex -2.5 0 -5
      vertex 13 8 -5
    endloop
  endfacet
  facet normal 0 0 -1
    outer loop
      vertex 13 -8 -5
      vertex -2.51369 -0.261321 -5
      vertex -2.5 0 -5
    endloop
  endfacet
  facet normal 0 0 -1
    outer loop
      vertex 13 -8 -5
      vertex -2.55463 -0.519779 -5
      vertex -2.51369 -0.261321 -5
    endloop
  endfacet
  facet normal 0 0 -1
    outer loop
      vertex 13 -8 -5
      vertex -2.62236 -0.772542 -5
      vertex -2.55463 -0.519779 -5
    endloop
  endfacet
  facet normal 0 0 -1
    outer loop
      vertex 13 -8 -5
      vertex -2.71614 -1.01684 -5
      vertex -2.62236 -0.772542 -5
    endloop
  endfacet
  facet normal 0 0 -1
    outer loop
      vertex 13 -8 -5
      vertex -2.83494 -1.25 -5
      vertex -2.71614 -1.01684 -5
    endloop
  endfacet
  facet normal 0 0 -1
    outer loop
      vertex 13 -8 -5
      vertex -2.97746 -1.46946 -5
      vertex -2.83494 -1.25 -5
    endloop
  endfacet
  facet normal 0 0 -1
    outer loop
      vertex 13 -8 -5
      vertex -3.14214 -1.67283 -5
      vertex -2.97746 -1.46946 -5
    endloop
  endfacet
  facet normal 0 0 -1
    outer loop
      vertex 13 -8 -5
      vertex -3.32717 -1.85786 -5
      vertex -3.14214 -1.67283 -5
    endloop
  endfacet
  facet normal 0 0 -1
    outer loop
      vertex 13 -8 -5
      vertex -3.53054 -2.02254 -5
      vertex -3.32717 -1.85786 -5
    endloop
  endfacet
  facet normal 0 0 -1
    outer loop
      vertex 13 -8 -5
      vertex -3.75 -2.16506 -5
      vertex -3.53054 -2.02254 -5
    endloop
  endfacet
  facet normal 0 0 -1
    outer loop
      vertex 13 -8 -5
      vertex -3.98316 -2.28386 -5
      vertex -3.75 -2.16506 -5
    endloop
  endfacet
  facet normal 0 0 -1
    outer loop
      vertex 13 -8 -5
      vertex -4.22746 -2.37764 -5
      vertex -3.98316 -2.28386 -5
    endloop
  endfacet
  facet normal 0 0 -1
    outer loop
      vertex 13 -8 -5
      vertex -4.48022 -2.44537 -5
      vertex -4.22746 -2.37764 -5
    endloop
  endfacet
  facet normal 0 0 -1
    outer loop
      vertex -13 -8 -5
      vertex -4.48022 -2.44537 -5
      vertex 13 -8 -5
    endloop
  endfacet
  facet normal 0 0 -1
    outer loop
      vertex -4.48022 -2.44537 -5
      vertex -13 -8 -5
      vertex -4.73868 -2.4863 -5
    endloop
  endfacet
  facet normal 0 0 -1
    outer loop
      vertex -4.73868 -2.4863 -5
      vertex -13 -8 -5
      vertex -5 -2.5 -5
    endloop
  endfacet
  facet normal -0 0 -1
    outer loop
      vertex -5 -2.5 -5
      vertex -13 -8 -5
      vertex -5.26132 -2.4863 -5
    endloop
  endfacet
  facet normal -0 0 -1
    outer loop
      vertex -5.26132 -2.4863 -5
      vertex -13 -8 -5
      vertex -5.51978 -2.44537 -5
    endloop
  endfacet
  facet normal -0 0 -1
    outer loop
      vertex -7.4863 -0.261321 -5
      vertex -13 -8 -5
      vertex -7.5 0 -5
    endloop
  endfacet
  facet normal -0 0 -1
    outer loop
      vertex -7.44537 -0.519779 -5
      vertex -13 -8 -5
      vertex -7.4863 -0.261321 -5
    endloop
  endfacet
  facet normal -0 0 -1
    outer loop
      vertex -7.37764 -0.772542 -5
      vertex -13 -8 -5
      vertex -7.44537 -0.519779 -5
    endloop
  endfacet
  facet normal -0 0 -1
    outer loop
      vertex -7.28386 -1.01684 -5
      vertex -13 -8 -5
      vertex -7.37764 -0.772542 -5
    endloop
  endfacet
  facet normal -0 0 -1
    outer loop
      vertex -7.16506 -1.25 -5
      vertex -13 -8 -5
      vertex -7.28386 -1.01684 -5
    endloop
  endfacet
  facet normal -0 0 -1
    outer loop
      vertex -7.02254 -1.46946 -5
      vertex -13 -8 -5
      vertex -7.16506 -1.25 -5
    endloop
  endfacet
  facet normal -0 0 -1
    outer loop
      vertex -6.85786 -1.67283 -5
      vertex -13 -8 -5
      vertex -7.02254 -1.46946 -5
    endloop
  endfacet
  facet normal -0 0 -1
    outer loop
      vertex -6.67283 -1.85786 -5
      vertex -13 -8 -5
      vertex -6.85786 -1.67283 -5
    endloop
  endfacet
  facet normal -0 0 -1
    outer loop
      vertex -6.46946 -2.02254 -5
      vertex -13 -8 -5
      vertex -6.67283 -1.85786 -5
    endloop
  endfacet
  facet normal -0 0 -1
    outer loop
      vertex -6.25 -2.16506 -5
      vertex -13 -8 -5
      vertex -6.46946 -2.02254 -5
    endloop
  endfacet
  facet normal -0 0 -1
    outer loop
      vertex -6.01684 -2.28386 -5
      vertex -13 -8 -5
      vertex -6.25 -2.16506 -5
    endloop
  endfacet
  facet normal -0 0 -1
    outer loop
      vertex -5.77254 -2.37764 -5
      vertex -13 -8 -5
      vertex -6.01684 -2.28386 -5
    endloop
  endfacet
  facet normal -0 0 -1
    outer loop
      vertex -5.51978 -2.44537 -5
      vertex -13 -8 -5
      vertex -5.77254 -2.37764 -5
    endloop
  endfacet
  facet normal 0 0 -1
    outer loop
      vertex -2.51369 0.261321 -5
      vertex 13 8 -5
      vertex -2.5 0 -5
    endloop
  endfacet
  facet normal 0 0 -1
    outer loop
      vertex -2.55463 0.519779 -5
      vertex 13 8 -5
      vertex -2.51369 0.261321 -5
    endloop
  endfacet
  facet normal 0 0 -1
    outer loop
      vertex -2.62236 0.772542 -5
      vertex 13 8 -5
      vertex -2.55463 0.519779 -5
    endloop
  endfacet
  facet normal 0 0 -1
    outer loop
      vertex -2.71614 1.01684 -5
      vertex 13 8 -5
      vertex -2.62236 0.772542 -5
    endloop
  endfacet
  facet normal 0 0 -1
    outer loop
      vertex -2.83494 1.25 -5
      vertex 13 8 -5
      vertex -2.71614 1.01684 -5
    endloop
  endfacet
  facet normal 0 0 -1
    outer loop
      vertex -2.97746 1.46946 -5
      vertex 13 8 -5
      vertex -2.83494 1.25 -5
    endloop
  endfacet
  facet normal 0 0 -1
    outer loop
      vertex -3.14214 1.67283 -5
      vertex 13 8 -5
      vertex -2.97746 1.46946 -5
    endloop
  endfacet
  facet normal 0 0 -1
    outer loop
      vertex -3.32717 1.85786 -5
      vertex 13 8 -5
      vertex -3.14214 1.67283 -5
    endloop
  endfacet
  facet normal 0 0 -1
    outer loop
      vertex -3.53054 2.02254 -5
      vertex 13 8 -5
      vertex -3.32717 1.85786 -5
    endloop
  endfacet
  facet normal 0 0 -1
    outer loop
      vertex -3.75 2.16506 -5
      vertex 13 8 -5
      vertex -3.53054 2.02254 -5
    endloop
  endfacet
  facet normal 0 0 -1
    outer loop
      vertex -3.98316 2.28386 -5
      vertex 13 8 -5
      vertex -3.75 2.16506 -5
    endloop
  endfacet
  facet normal 0 0 -1
    outer loop
      vertex -4.22746 2.37764 -5
      vertex 13 8 -5
      vertex -3.98316 2.28386 -5
    endloop
  endfacet
  facet normal 0 0 -1
    outer loop
      vertex -4.48022 2.44537 -5
      vertex 13 8 -5
      vertex -4.22746 2.37764 -5
    endloop
  endfacet
  facet normal 0 0 -1
    outer loop
      vertex -13 8 -5
      vertex -4.48022 2.44537 -5
      vertex -4.73868 2.4863 -5
    endloop
  endfacet
  facet normal 0 0 -1
    outer loop
      vertex -13 8 -5
      vertex -4.73868 2.4863 -5
      vertex -5 2.5 -5
    endloop
  endfacet
  facet normal 0 0 -1
    outer loop
      vertex -13 8 -5
      vertex -5 2.5 -5
      vertex -5.26132 2.4863 -5
    endloop
  endfacet
  facet normal 0 0 -1
    outer loop
      vertex -13 8 -5
      vertex -5.26132 2.4863 -5
      vertex -5.51978 2.44537 -5
    endloop
  endfacet
  facet normal 0 0 -1
    outer loop
      vertex -13 8 -5
      vertex -5.51978 2.44537 -5
      vertex -5.77254 2.37764 -5
    endloop
  endfacet
  facet normal 0 0 -1
    outer loop
      vertex -13 8 -5
      vertex -7.5 0 -5
      vertex -13 -8 -5
    endloop
  endfacet
  facet normal 0 0 -1
    outer loop
      vertex -7.5 0 -5
      vertex -13 8 -5
      vertex -7.4863 0.261321 -5
    endloop
  endfacet
  facet normal 0 0 -1
    outer loop
      vertex -7.4863 0.261321 -5
      vertex -13 8 -5
      vertex -7.44537 0.519779 -5
    endloop
  endfacet
  facet normal 0 0 -1
    outer loop
      vertex -7.44537 0.519779 -5
      vertex -13 8 -5
      vertex -7.37764 0.772542 -5
    endloop
  endfacet
  facet normal 0 0 -1
    outer loop
      vertex -7.37764 0.772542 -5
      vertex -13 8 -5
      vertex -7.28386 1.01684 -5
    endloop
  endfacet
  facet normal 0 0 -1
    outer loop
      vertex -4.48022 2.44537 -5
      vertex -13 8 -5
      vertex 13 8 -5
    endloop
  endfacet
  facet normal 0 0 -1
    outer loop
      vertex -6.01684 2.28386 -5
      vertex -13 8 -5
      vertex -5.77254 2.37764 -5
    endloop
  endfacet
  facet normal 0 0 -1
    outer loop
      vertex -6.25 2.16506 -5
      vertex -13 8 -5
      vertex -6.01684 2.28386 -5
    endloop
  endfacet
  facet normal 0 0 -1
    outer loop
      vertex -6.46946 2.02254 -5
      vertex -13 8 -5
      vertex -6.25 2.16506 -5
    endloop
  endfacet
  facet normal 0 0 -1
    outer loop
      vertex -6.67283 1.85786 -5
      vertex -13 8 -5
      vertex -6.46946 2.02254 -5
    endloop
  endfacet
  facet normal 0 0 -1
    outer loop
      vertex -6.85786 1.67283 -5
      vertex -13 8 -5
      vertex -6.67283 1.85786 -5
    endloop
  endfacet
  facet normal 0 0 -1
    outer loop
      vertex -7.02254 1.46946 -5
      vertex -13 8 -5
      vertex -6.85786 1.67283 -5
    endloop
  endfacet
  facet normal 0 0 -1
    outer loop
      vertex -7.16506 1.25 -5
      vertex -13 8 -5
      vertex -7.02254 1.46946 -5
    endloop
  endfacet
  facet normal 0 0 -1
    outer loop
      vertex -7.28386 1.01684 -5
      vertex -13 8 -5
      vertex -7.16506 1.25 -5
    endloop
  endfacet
  facet normal 0 -1 0
    outer loop
      vertex -13 -8 -5
      vertex 13 -8 1
      vertex -13 -8 1
    endloop
  endfacet
  facet normal 0 -1 -0
    outer loop
      vertex 13 -8 1
      vertex -13 -8 -5
      vertex 13 -8 -5
    endloop
  endfacet
  facet normal 1 -0 0
    outer loop
      vertex -11.5 -6.5 1
      vertex -11.5 -4.5 -3
      vertex -11.5 -4.5 1
    endloop
  endfacet
  facet normal 1 0 0
    outer loop
      vertex -11.5 -4.5 -3
      vertex -11.5 -6.5 1
      vertex -11.5 -6.5 -3
    endloop
  endfacet
  facet normal 1 -0 0
    outer loop
      vertex -11.5 4.5 1
      vertex -11.5 6.5 -3
      vertex -11.5 6.5 1
    endloop
  endfacet
  facet normal 1 0 0
    outer loop
      vertex -11.5 6.5 -3
      vertex -11.5 4.5 1
      vertex -11.5 4.5 -3
    endloop
  endfacet
  facet normal -1 0 0
    outer loop
      vertex 11.5 -6.5 -3
      vertex 11.5 6.5 1
      vertex 11.5 6.5 -3
    endloop
  endfacet
  facet normal -1 -0 0
    outer loop
      vertex 11.5 6.5 1
      vertex 11.5 -6.5 -3
      vertex 11.5 -6.5 1
    endloop
  endfacet
  facet normal -0 0 1
    outer loop
      vertex -13 4.5 -3
      vertex -11.5 -4.5 -3
      vertex -11.5 4.5 -3
    endloop
  endfacet
  facet normal 0 0 1
    outer loop
      vertex -11.5 -4.5 -3
      vertex -13 4.5 -3
      vertex -13 -4.5 -3
    endloop
  endfacet
  facet normal 0 0 1
    outer loop
      vertex 11.5 6.5 -3
      vertex -2.5 0 -3
      vertex 11.5 -6.5 -3
    endloop
  endfacet
  facet normal 0 0 1
    outer loop
      vertex 11.5 6.5 -3
      vertex -2.51369 0.261321 -3
      vertex -2.5 0 -3
    endloop
  endfacet
  facet normal 0 0 1
    outer loop
      vertex 11.5 6.5 -3
      vertex -2.55463 0.519779 -3
      vertex -2.51369 0.261321 -3
    endloop
  endfacet
  facet normal 0 0 1
    outer loop
      vertex 11.5 6.5 -3
      vertex -2.62236 0.772542 -3
      vertex -2.55463 0.519779 -3
    endloop
  endfacet
  facet normal 0 0 1
    outer loop
      vertex 11.5 6.5 -3
      vertex -2.71614 1.01684 -3
      vertex -2.62236 0.772542 -3
    endloop
  endfacet
  facet normal 0 0 1
    outer loop
      vertex 11.5 6.5 -3
      vertex -2.83494 1.25 -3
      vertex -2.71614 1.01684 -3
    endloop
  endfacet
  facet normal 0 0 1
    outer loop
      vertex 11.5 6.5 -3
      vertex -2.97746 1.46946 -3
      vertex -2.83494 1.25 -3
    endloop
  endfacet
  facet normal 0 0 1
    outer loop
      vertex 11.5 6.5 -3
      vertex -3.14214 1.67283 -3
      vertex -2.97746 1.46946 -3
    endloop
  endfacet
  facet normal 0 0 1
    outer loop
      vertex 11.5 6.5 -3
      vertex -3.32717 1.85786 -3
      vertex -3.14214 1.67283 -3
    endloop
  endfacet
  facet normal 0 0 1
    outer loop
      vertex 11.5 6.5 -3
      vertex -3.53054 2.02254 -3
      vertex -3.32717 1.85786 -3
    endloop
  endfacet
  facet normal 0 0 1
    outer loop
      vertex 11.5 6.5 -3
      vertex -3.75 2.16506 -3
      vertex -3.53054 2.02254 -3
    endloop
  endfacet
  facet normal 0 0 1
    outer loop
      vertex 11.5 6.5 -3
      vertex -3.98316 2.28386 -3
      vertex -3.75 2.16506 -3
    endloop
  endfacet
  facet normal 0 0 1
    outer loop
      vertex 11.5 6.5 -3
      vertex -4.22746 2.37764 -3
      vertex -3.98316 2.28386 -3
    endloop
  endfacet
  facet normal 0 0 1
    outer loop
      vertex 11.5 6.5 -3
      vertex -4.48022 2.44537 -3
      vertex -4.22746 2.37764 -3
    endloop
  endfacet
  facet normal -0 0 1
    outer loop
      vertex -11.5 6.5 -3
      vertex -4.48022 2.44537 -3
      vertex 11.5 6.5 -3
    endloop
  endfacet
  facet normal 0 0 1
    outer loop
      vertex -4.48022 2.44537 -3
      vertex -11.5 6.5 -3
      vertex -4.73868 2.4863 -3
    endloop
  endfacet
  facet normal 0 0 1
    outer loop
      vertex -4.73868 2.4863 -3
      vertex -11.5 6.5 -3
      vertex -5 2.5 -3
    endloop
  endfacet
  facet normal 0 0 1
    outer loop
      vertex -5 2.5 -3
      vertex -11.5 6.5 -3
      vertex -5.26132 2.4863 -3
    endloop
  endfacet
  facet normal 0 0 1
    outer loop
      vertex -7.44537 0.519779 -3
      vertex -11.5 4.5 -3
      vertex -7.4863 0.261321 -3
    endloop
  endfacet
  facet normal 0 0 1
    outer loop
      vertex -7.37764 0.772542 -3
      vertex -11.5 4.5 -3
      vertex -7.44537 0.519779 -3
    endloop
  endfacet
  facet normal 0 0 1
    outer loop
      vertex -7.28386 1.01684 -3
      vertex -11.5 4.5 -3
      vertex -7.37764 0.772542 -3
    endloop
  endfacet
  facet normal 0 0 1
    outer loop
      vertex -7.16506 1.25 -3
      vertex -11.5 4.5 -3
      vertex -7.28386 1.01684 -3
    endloop
  endfacet
  facet normal 0 0 1
    outer loop
      vertex -7.02254 1.46946 -3
      vertex -11.5 4.5 -3
      vertex -7.16506 1.25 -3
    endloop
  endfacet
  facet normal 0 0 1
    outer loop
      vertex -6.85786 1.67283 -3
      vertex -11.5 4.5 -3
      vertex -7.02254 1.46946 -3
    endloop
  endfacet
  facet normal 0 0 1
    outer loop
      vertex -6.67283 1.85786 -3
      vertex -11.5 4.5 -3
      vertex -6.85786 1.67283 -3
    endloop
  endfacet
  facet normal 0 0 1
    outer loop
      vertex -6.46946 2.02254 -3
      vertex -11.5 4.5 -3
      vertex -6.67283 1.85786 -3
    endloop
  endfacet
  facet normal 0 0 1
    outer loop
      vertex -6.25 2.16506 -3
      vertex -11.5 4.5 -3
      vertex -6.46946 2.02254 -3
    endloop
  endfacet
  facet normal -0 0 1
    outer loop
      vertex -11.5 4.5 -3
      vertex -6.25 2.16506 -3
      vertex -11.5 6.5 -3
    endloop
  endfacet
  facet normal 0 0 1
    outer loop
      vertex -6.01684 2.28386 -3
      vertex -11.5 6.5 -3
      vertex -6.25 2.16506 -3
    endloop
  endfacet
  facet normal 0 0 1
    outer loop
      vertex -5.77254 2.37764 -3
      vertex -11.5 6.5 -3
      vertex -6.01684 2.28386 -3
    endloop
  endfacet
  facet normal 0 0 1
    outer loop
      vertex -5.51978 2.44537 -3
      vertex -11.5 6.5 -3
      vertex -5.77254 2.37764 -3
    endloop
  endfacet
  facet normal 0 0 1
    outer loop
      vertex -5.26132 2.4863 -3
      vertex -11.5 6.5 -3
      vertex -5.51978 2.44537 -3
    endloop
  endfacet
  facet normal -0 0 1
    outer loop
      vertex -2.51369 -0.261321 -3
      vertex 11.5 -6.5 -3
      vertex -2.5 0 -3
    endloop
  endfacet
  facet normal -0 0 1
    outer loop
      vertex -2.55463 -0.519779 -3
      vertex 11.5 -6.5 -3
      vertex -2.51369 -0.261321 -3
    endloop
  endfacet
  facet normal -0 0 1
    outer loop
      vertex -2.62236 -0.772542 -3
      vertex 11.5 -6.5 -3
      vertex -2.55463 -0.519779 -3
    endloop
  endfacet
  facet normal -0 0 1
    outer loop
      vertex -2.71614 -1.01684 -3
      vertex 11.5 -6.5 -3
      vertex -2.62236 -0.772542 -3
    endloop
  endfacet
  facet normal -0 0 1
    outer loop
      vertex -2.83494 -1.25 -3
      vertex 11.5 -6.5 -3
      vertex -2.71614 -1.01684 -3
    endloop
  endfacet
  facet normal -0 0 1
    outer loop
      vertex -2.97746 -1.46946 -3
      vertex 11.5 -6.5 -3
      vertex -2.83494 -1.25 -3
    endloop
  endfacet
  facet normal -0 0 1
    outer loop
      vertex -3.14214 -1.67283 -3
      vertex 11.5 -6.5 -3
      vertex -2.97746 -1.46946 -3
    endloop
  endfacet
  facet normal -0 0 1
    outer loop
      vertex -3.32717 -1.85786 -3
      vertex 11.5 -6.5 -3
      vertex -3.14214 -1.67283 -3
    endloop
  endfacet
  facet normal -0 0 1
    outer loop
      vertex -3.53054 -2.02254 -3
      vertex 11.5 -6.5 -3
      vertex -3.32717 -1.85786 -3
    endloop
  endfacet
  facet normal -0 0 1
    outer loop
      vertex -3.75 -2.16506 -3
      vertex 11.5 -6.5 -3
      vertex -3.53054 -2.02254 -3
    endloop
  endfacet
  facet normal -0 0 1
    outer loop
      vertex -3.98316 -2.28386 -3
      vertex 11.5 -6.5 -3
      vertex -3.75 -2.16506 -3
    endloop
  endfacet
  facet normal -0 0 1
    outer loop
      vertex -4.22746 -2.37764 -3
      vertex 11.5 -6.5 -3
      vertex -3.98316 -2.28386 -3
    endloop
  endfacet
  facet normal -0 0 1
    outer loop
      vertex -4.48022 -2.44537 -3
      vertex 11.5 -6.5 -3
      vertex -4.22746 -2.37764 -3
    endloop
  endfacet
  facet normal 0 0 1
    outer loop
      vertex -11.5 -6.5 -3
      vertex -4.48022 -2.44537 -3
      vertex -4.73868 -2.4863 -3
    endloop
  endfacet
  facet normal 0 0 1
    outer loop
      vertex -11.5 -6.5 -3
      vertex -4.73868 -2.4863 -3
      vertex -5 -2.5 -3
    endloop
  endfacet
  facet normal 0 0 1
    outer loop
      vertex -11.5 -6.5 -3
      vertex -5 -2.5 -3
      vertex -5.26132 -2.4863 -3
    endloop
  endfacet
  facet normal 0 0 1
    outer loop
      vertex -11.5 -6.5 -3
      vertex -5.26132 -2.4863 -3
      vertex -5.51978 -2.44537 -3
    endloop
  endfacet
  facet normal 0 0 1
    outer loop
      vertex -7.4863 0.261321 -3
      vertex -11.5 4.5 -3
      vertex -7.5 0 -3
    endloop
  endfacet
  facet normal 0 0 1
    outer loop
      vertex -11.5 -4.5 -3
      vertex -7.5 0 -3
      vertex -11.5 4.5 -3
    endloop
  endfacet
  facet normal 0 0 1
    outer loop
      vertex -7.5 0 -3
      vertex -11.5 -4.5 -3
      vertex -7.4863 -0.261321 -3
    endloop
  endfacet
  facet normal 0 0 1
    outer loop
      vertex -7.4863 -0.261321 -3
      vertex -11.5 -4.5 -3
      vertex -7.44537 -0.519779 -3
    endloop
  endfacet
  facet normal 0 0 1
    outer loop
      vertex -7.44537 -0.519779 -3
      vertex -11.5 -4.5 -3
      vertex -7.37764 -0.772542 -3
    endloop
  endfacet
  facet normal 0 0 1
    outer loop
      vertex -7.37764 -0.772542 -3
      vertex -11.5 -4.5 -3
      vertex -7.28386 -1.01684 -3
    endloop
  endfacet
  facet normal 0 0 1
    outer loop
      vertex -7.28386 -1.01684 -3
      vertex -11.5 -4.5 -3
      vertex -7.16506 -1.25 -3
    endloop
  endfacet
  facet normal 0 0 1
    outer loop
      vertex -7.16506 -1.25 -3
      vertex -11.5 -4.5 -3
      vertex -7.02254 -1.46946 -3
    endloop
  endfacet
  facet normal 0 0 1
    outer loop
      vertex -11.5 -4.5 -3
      vertex -6.85786 -1.67283 -3
      vertex -7.02254 -1.46946 -3
    endloop
  endfacet
  facet normal 0 0 1
    outer loop
      vertex -11.5 -4.5 -3
      vertex -6.67283 -1.85786 -3
      vertex -6.85786 -1.67283 -3
    endloop
  endfacet
  facet normal 0 0 1
    outer loop
      vertex -11.5 -4.5 -3
      vertex -6.46946 -2.02254 -3
      vertex -6.67283 -1.85786 -3
    endloop
  endfacet
  facet normal 0 0 1
    outer loop
      vertex -11.5 -4.5 -3
      vertex -6.25 -2.16506 -3
      vertex -6.46946 -2.02254 -3
    endloop
  endfacet
  facet normal 0 0 1
    outer loop
      vertex -11.5 -6.5 -3
      vertex -6.25 -2.16506 -3
      vertex -11.5 -4.5 -3
    endloop
  endfacet
  facet normal 0 0 1
    outer loop
      vertex -6.25 -2.16506 -3
      vertex -11.5 -6.5 -3
      vertex -6.01684 -2.28386 -3
    endloop
  endfacet
  facet normal 0 0 1
    outer loop
      vertex -6.01684 -2.28386 -3
      vertex -11.5 -6.5 -3
      vertex -5.77254 -2.37764 -3
    endloop
  endfacet
  facet normal 0 0 1
    outer loop
      vertex -5.77254 -2.37764 -3
      vertex -11.5 -6.5 -3
      vertex -5.51978 -2.44537 -3
    endloop
  endfacet
  facet normal 0 0 1
    outer loop
      vertex -4.48022 -2.44537 -3
      vertex -11.5 -6.5 -3
      vertex 11.5 -6.5 -3
    endloop
  endfacet
  facet normal 0 1 -0
    outer loop
      vertex 11.5 -6.5 -3
      vertex -11.5 -6.5 1
      vertex 11.5 -6.5 1
    endloop
  endfacet
  facet normal 0 1 0
    outer loop
      vertex -11.5 -6.5 1
      vertex 11.5 -6.5 -3
      vertex -11.5 -6.5 -3
    endloop
  endfacet
  facet normal 0 -1 0
    outer loop
      vertex -11.5 6.5 -3
      vertex 11.5 6.5 1
      vertex -11.5 6.5 1
    endloop
  endfacet
  facet normal 0 -1 -0
    outer loop
      vertex 11.5 6.5 1
      vertex -11.5 6.5 -3
      vertex 11.5 6.5 -3
    endloop
  endfacet
  facet normal 0 1 -0
    outer loop
      vertex -11.5 -4.5 -3
      vertex -13 -4.5 1
      vertex -11.5 -4.5 1
    endloop
  endfacet
  facet normal 0 1 0
    outer loop
      vertex -13 -4.5 1
      vertex -11.5 -4.5 -3
      vertex -13 -4.5 -3
    endloop
  endfacet
  facet normal 0 -1 0
    outer loop
      vertex -13 4.5 -3
      vertex -11.5 4.5 1
      vertex -13 4.5 1
    endloop
  endfacet
  facet normal 0 -1 -0
    outer loop
      vertex -11.5 4.5 1
      vertex -13 4.5 -3
      vertex -11.5 4.5 -3
    endloop
  endfacet
  facet normal -0.99863 -0.0523341 0
    outer loop
      vertex -2.5 0 -5
      vertex -2.51369 0.261321 -3
      vertex -2.51369 0.261321 -5
    endloop
  endfacet
  facet normal -0.99863 -0.0523341 0
    outer loop
      vertex -2.51369 0.261321 -3
      vertex -2.5 0 -5
      vertex -2.5 0 -3
    endloop
  endfacet
  facet normal 0.998629 -0.0523377 0
    outer loop
      vertex -7.5 0 -3
      vertex -7.4863 0.261321 -5
      vertex -7.4863 0.261321 -3
    endloop
  endfacet
  facet normal 0.998629 -0.0523377 0
    outer loop
      vertex -7.4863 0.261321 -5
      vertex -7.5 0 -3
      vertex -7.5 0 -5
    endloop
  endfacet
  facet normal -0.0523377 -0.998629 0
    outer loop
      vertex -5 2.5 -5
      vertex -4.73868 2.4863 -3
      vertex -5 2.5 -3
    endloop
  endfacet
  facet normal -0.0523377 -0.998629 -0
    outer loop
      vertex -4.73868 2.4863 -3
      vertex -5 2.5 -5
      vertex -4.73868 2.4863 -5
    endloop
  endfacet
  facet normal -0.707107 -0.707107 0
    outer loop
      vertex -3.14214 1.67283 -5
      vertex -3.32717 1.85786 -3
      vertex -3.32717 1.85786 -5
    endloop
  endfacet
  facet normal -0.707107 -0.707107 0
    outer loop
      vertex -3.32717 1.85786 -3
      vertex -3.14214 1.67283 -5
      vertex -3.14214 1.67283 -3
    endloop
  endfacet
  facet normal 0.62932 -0.777146 0
    outer loop
      vertex -6.67283 1.85786 -5
      vertex -6.46946 2.02254 -3
      vertex -6.67283 1.85786 -3
    endloop
  endfacet
  facet normal 0.62932 -0.777146 0
    outer loop
      vertex -6.46946 2.02254 -3
      vertex -6.67283 1.85786 -5
      vertex -6.46946 2.02254 -5
    endloop
  endfacet
  facet normal 0.258821 -0.965925 0
    outer loop
      vertex -5.77254 2.37764 -5
      vertex -5.51978 2.44537 -3
      vertex -5.77254 2.37764 -3
    endloop
  endfacet
  facet normal 0.258821 -0.965925 0
    outer loop
      vertex -5.51978 2.44537 -3
      vertex -5.77254 2.37764 -5
      vertex -5.51978 2.44537 -5
    endloop
  endfacet
  facet normal 0.965925 0.258821 0
    outer loop
      vertex -7.37764 -0.772542 -3
      vertex -7.44537 -0.519779 -5
      vertex -7.44537 -0.519779 -3
    endloop
  endfacet
  facet normal 0.965925 0.258821 0
    outer loop
      vertex -7.44537 -0.519779 -5
      vertex -7.37764 -0.772542 -3
      vertex -7.37764 -0.772542 -5
    endloop
  endfacet
  facet normal -0.93358 -0.358368 0
    outer loop
      vertex -2.62236 0.772542 -5
      vertex -2.71614 1.01684 -3
      vertex -2.71614 1.01684 -5
    endloop
  endfacet
  facet normal -0.93358 -0.358368 0
    outer loop
      vertex -2.71614 1.01684 -3
      vertex -2.62236 0.772542 -5
      vertex -2.62236 0.772542 -3
    endloop
  endfacet
  facet normal -0.987688 -0.156434 0
    outer loop
      vertex -2.51369 0.261321 -5
      vertex -2.55463 0.519779 -3
      vertex -2.55463 0.519779 -5
    endloop
  endfacet
  facet normal -0.987688 -0.156434 0
    outer loop
      vertex -2.55463 0.519779 -3
      vertex -2.51369 0.261321 -5
      vertex -2.51369 0.261321 -3
    endloop
  endfacet
  facet normal -0.453991 -0.891006 0
    outer loop
      vertex -3.98316 2.28386 -5
      vertex -3.75 2.16506 -3
      vertex -3.98316 2.28386 -3
    endloop
  endfacet
  facet normal -0.453991 -0.891006 -0
    outer loop
      vertex -3.75 2.16506 -3
      vertex -3.98316 2.28386 -5
      vertex -3.75 2.16506 -5
    endloop
  endfacet
  facet normal -0.62932 -0.777146 0
    outer loop
      vertex -3.53054 2.02254 -5
      vertex -3.32717 1.85786 -3
      vertex -3.53054 2.02254 -3
    endloop
  endfacet
  facet normal -0.62932 -0.777146 -0
    outer loop
      vertex -3.32717 1.85786 -3
      vertex -3.53054 2.02254 -5
      vertex -3.32717 1.85786 -5
    endloop
  endfacet
  facet normal 0.838671 -0.544638 0
    outer loop
      vertex -7.16506 1.25 -3
      vertex -7.02254 1.46946 -5
      vertex -7.02254 1.46946 -3
    endloop
  endfacet
  facet normal 0.838671 -0.544638 0
    outer loop
      vertex -7.02254 1.46946 -5
      vertex -7.16506 1.25 -3
      vertex -7.16506 1.25 -5
    endloop
  endfacet
  facet normal 0.777146 -0.62932 0
    outer loop
      vertex -7.02254 1.46946 -3
      vertex -6.85786 1.67283 -5
      vertex -6.85786 1.67283 -3
    endloop
  endfacet
  facet normal 0.777146 -0.62932 0
    outer loop
      vertex -6.85786 1.67283 -5
      vertex -7.02254 1.46946 -3
      vertex -7.02254 1.46946 -5
    endloop
  endfacet
  facet normal 0.156434 -0.987688 0
    outer loop
      vertex -5.51978 2.44537 -5
      vertex -5.26132 2.4863 -3
      vertex -5.51978 2.44537 -3
    endloop
  endfacet
  facet normal 0.156434 -0.987688 0
    outer loop
      vertex -5.26132 2.4863 -3
      vertex -5.51978 2.44537 -5
      vertex -5.26132 2.4863 -5
    endloop
  endfacet
  facet normal -0.891006 0.453991 0
    outer loop
      vertex -2.83494 -1.25 -5
      vertex -2.71614 -1.01684 -3
      vertex -2.71614 -1.01684 -5
    endloop
  endfacet
  facet normal -0.891006 0.453991 0
    outer loop
      vertex -2.71614 -1.01684 -3
      vertex -2.83494 -1.25 -5
      vertex -2.83494 -1.25 -3
    endloop
  endfacet
  facet normal -0.258821 0.965925 0
    outer loop
      vertex -4.22746 -2.37764 -5
      vertex -4.48022 -2.44537 -3
      vertex -4.22746 -2.37764 -3
    endloop
  endfacet
  facet normal -0.258821 0.965925 0
    outer loop
      vertex -4.48022 -2.44537 -3
      vertex -4.22746 -2.37764 -5
      vertex -4.48022 -2.44537 -5
    endloop
  endfacet
  facet normal -0.707107 0.707107 0
    outer loop
      vertex -3.32717 -1.85786 -5
      vertex -3.14214 -1.67283 -3
      vertex -3.14214 -1.67283 -5
    endloop
  endfacet
  facet normal -0.707107 0.707107 0
    outer loop
      vertex -3.14214 -1.67283 -3
      vertex -3.32717 -1.85786 -5
      vertex -3.32717 -1.85786 -3
    endloop
  endfacet
  facet normal -0.965925 0.258821 0
    outer loop
      vertex -2.62236 -0.772542 -5
      vertex -2.55463 -0.519779 -3
      vertex -2.55463 -0.519779 -5
    endloop
  endfacet
  facet normal -0.965925 0.258821 0
    outer loop
      vertex -2.55463 -0.519779 -3
      vertex -2.62236 -0.772542 -5
      vertex -2.62236 -0.772542 -3
    endloop
  endfacet
  facet normal 0.358368 0.93358 -0
    outer loop
      vertex -5.77254 -2.37764 -5
      vertex -6.01684 -2.28386 -3
      vertex -5.77254 -2.37764 -3
    endloop
  endfacet
  facet normal 0.358368 0.93358 0
    outer loop
      vertex -6.01684 -2.28386 -3
      vertex -5.77254 -2.37764 -5
      vertex -6.01684 -2.28386 -5
    endloop
  endfacet
  facet normal 0.777146 0.62932 0
    outer loop
      vertex -6.85786 -1.67283 -3
      vertex -7.02254 -1.46946 -5
      vertex -7.02254 -1.46946 -3
    endloop
  endfacet
  facet normal 0.777146 0.62932 0
    outer loop
      vertex -7.02254 -1.46946 -5
      vertex -6.85786 -1.67283 -3
      vertex -6.85786 -1.67283 -5
    endloop
  endfacet
  facet normal -0.965925 -0.258821 0
    outer loop
      vertex -2.55463 0.519779 -5
      vertex -2.62236 0.772542 -3
      vertex -2.62236 0.772542 -5
    endloop
  endfacet
  facet normal -0.965925 -0.258821 0
    outer loop
      vertex -2.62236 0.772542 -3
      vertex -2.55463 0.519779 -5
      vertex -2.55463 0.519779 -3
    endloop
  endfacet
  facet normal -0.838671 -0.544638 0
    outer loop
      vertex -2.83494 1.25 -5
      vertex -2.97746 1.46946 -3
      vertex -2.97746 1.46946 -5
    endloop
  endfacet
  facet normal -0.838671 -0.544638 0
    outer loop
      vertex -2.97746 1.46946 -3
      vertex -2.83494 1.25 -5
      vertex -2.83494 1.25 -3
    endloop
  endfacet
  facet normal -0.891006 -0.453991 0
    outer loop
      vertex -2.71614 1.01684 -5
      vertex -2.83494 1.25 -3
      vertex -2.83494 1.25 -5
    endloop
  endfacet
  facet normal -0.891006 -0.453991 0
    outer loop
      vertex -2.83494 1.25 -3
      vertex -2.71614 1.01684 -5
      vertex -2.71614 1.01684 -3
    endloop
  endfacet
  facet normal -0.258821 -0.965925 0
    outer loop
      vertex -4.48022 2.44537 -5
      vertex -4.22746 2.37764 -3
      vertex -4.48022 2.44537 -3
    endloop
  endfacet
  facet normal -0.258821 -0.965925 -0
    outer loop
      vertex -4.22746 2.37764 -3
      vertex -4.48022 2.44537 -5
      vertex -4.22746 2.37764 -5
    endloop
  endfacet
  facet normal -0.156434 -0.987688 0
    outer loop
      vertex -4.73868 2.4863 -5
      vertex -4.48022 2.44537 -3
      vertex -4.73868 2.4863 -3
    endloop
  endfacet
  facet normal -0.156434 -0.987688 -0
    outer loop
      vertex -4.48022 2.44537 -3
      vertex -4.73868 2.4863 -5
      vertex -4.48022 2.44537 -5
    endloop
  endfacet
  facet normal 0.965925 -0.258821 0
    outer loop
      vertex -7.44537 0.519779 -3
      vertex -7.37764 0.772542 -5
      vertex -7.37764 0.772542 -3
    endloop
  endfacet
  facet normal 0.965925 -0.258821 0
    outer loop
      vertex -7.37764 0.772542 -5
      vertex -7.44537 0.519779 -3
      vertex -7.44537 0.519779 -5
    endloop
  endfacet
  facet normal 0.891006 -0.453991 0
    outer loop
      vertex -7.28386 1.01684 -3
      vertex -7.16506 1.25 -5
      vertex -7.16506 1.25 -3
    endloop
  endfacet
  facet normal 0.891006 -0.453991 0
    outer loop
      vertex -7.16506 1.25 -5
      vertex -7.28386 1.01684 -3
      vertex -7.28386 1.01684 -5
    endloop
  endfacet
  facet normal 0.987688 -0.156434 0
    outer loop
      vertex -7.4863 0.261321 -3
      vertex -7.44537 0.519779 -5
      vertex -7.44537 0.519779 -3
    endloop
  endfacet
  facet normal 0.987688 -0.156434 0
    outer loop
      vertex -7.44537 0.519779 -5
      vertex -7.4863 0.261321 -3
      vertex -7.4863 0.261321 -5
    endloop
  endfacet
  facet normal 0.45399 -0.891007 0
    outer loop
      vertex -6.25 2.16506 -5
      vertex -6.01684 2.28386 -3
      vertex -6.25 2.16506 -3
    endloop
  endfacet
  facet normal 0.45399 -0.891007 0
    outer loop
      vertex -6.01684 2.28386 -3
      vertex -6.25 2.16506 -5
      vertex -6.01684 2.28386 -5
    endloop
  endfacet
  facet normal 0.0523375 -0.998629 0
    outer loop
      vertex -5.26132 2.4863 -5
      vertex -5 2.5 -3
      vertex -5.26132 2.4863 -3
    endloop
  endfacet
  facet normal 0.0523375 -0.998629 0
    outer loop
      vertex -5 2.5 -3
      vertex -5.26132 2.4863 -5
      vertex -5 2.5 -5
    endloop
  endfacet
  facet normal -0.99863 0.0523341 0
    outer loop
      vertex -2.51369 -0.261321 -5
      vertex -2.5 0 -3
      vertex -2.5 0 -5
    endloop
  endfacet
  facet normal -0.99863 0.0523341 0
    outer loop
      vertex -2.5 0 -3
      vertex -2.51369 -0.261321 -5
      vertex -2.51369 -0.261321 -3
    endloop
  endfacet
  facet normal -0.0523375 0.998629 0
    outer loop
      vertex -4.73868 -2.4863 -5
      vertex -5 -2.5 -3
      vertex -4.73868 -2.4863 -3
    endloop
  endfacet
  facet normal -0.0523375 0.998629 0
    outer loop
      vertex -5 -2.5 -3
      vertex -4.73868 -2.4863 -5
      vertex -5 -2.5 -5
    endloop
  endfacet
  facet normal -0.453991 0.891006 0
    outer loop
      vertex -3.75 -2.16506 -5
      vertex -3.98316 -2.28386 -3
      vertex -3.75 -2.16506 -3
    endloop
  endfacet
  facet normal -0.453991 0.891006 0
    outer loop
      vertex -3.98316 -2.28386 -3
      vertex -3.75 -2.16506 -5
      vertex -3.98316 -2.28386 -5
    endloop
  endfacet
  facet normal -0.62932 0.777146 0
    outer loop
      vertex -3.32717 -1.85786 -5
      vertex -3.53054 -2.02254 -3
      vertex -3.32717 -1.85786 -3
    endloop
  endfacet
  facet normal -0.62932 0.777146 0
    outer loop
      vertex -3.53054 -2.02254 -3
      vertex -3.32717 -1.85786 -5
      vertex -3.53054 -2.02254 -5
    endloop
  endfacet
  facet normal -0.544638 0.838671 0
    outer loop
      vertex -3.53054 -2.02254 -5
      vertex -3.75 -2.16506 -3
      vertex -3.53054 -2.02254 -3
    endloop
  endfacet
  facet normal -0.544638 0.838671 0
    outer loop
      vertex -3.75 -2.16506 -3
      vertex -3.53054 -2.02254 -5
      vertex -3.75 -2.16506 -5
    endloop
  endfacet
  facet normal -0.777146 0.62932 0
    outer loop
      vertex -3.14214 -1.67283 -5
      vertex -2.97746 -1.46946 -3
      vertex -2.97746 -1.46946 -5
    endloop
  endfacet
  facet normal -0.777146 0.62932 0
    outer loop
      vertex -2.97746 -1.46946 -3
      vertex -3.14214 -1.67283 -5
      vertex -3.14214 -1.67283 -3
    endloop
  endfacet
  facet normal -0.838671 0.544638 0
    outer loop
      vertex -2.97746 -1.46946 -5
      vertex -2.83494 -1.25 -3
      vertex -2.83494 -1.25 -5
    endloop
  endfacet
  facet normal -0.838671 0.544638 0
    outer loop
      vertex -2.83494 -1.25 -3
      vertex -2.97746 -1.46946 -5
      vertex -2.97746 -1.46946 -3
    endloop
  endfacet
  facet normal 0.707107 0.707107 0
    outer loop
      vertex -6.67283 -1.85786 -3
      vertex -6.85786 -1.67283 -5
      vertex -6.85786 -1.67283 -3
    endloop
  endfacet
  facet normal 0.707107 0.707107 0
    outer loop
      vertex -6.85786 -1.67283 -5
      vertex -6.67283 -1.85786 -3
      vertex -6.67283 -1.85786 -5
    endloop
  endfacet
  facet normal 0.62932 0.777146 -0
    outer loop
      vertex -6.46946 -2.02254 -5
      vertex -6.67283 -1.85786 -3
      vertex -6.46946 -2.02254 -3
    endloop
  endfacet
  facet normal 0.62932 0.777146 0
    outer loop
      vertex -6.67283 -1.85786 -3
      vertex -6.46946 -2.02254 -5
      vertex -6.67283 -1.85786 -5
    endloop
  endfacet
  facet normal 0.54464 0.83867 -0
    outer loop
      vertex -6.25 -2.16506 -5
      vertex -6.46946 -2.02254 -3
      vertex -6.25 -2.16506 -3
    endloop
  endfacet
  facet normal 0.54464 0.83867 0
    outer loop
      vertex -6.46946 -2.02254 -3
      vertex -6.25 -2.16506 -5
      vertex -6.46946 -2.02254 -5
    endloop
  endfacet
  facet normal 0.156434 0.987688 -0
    outer loop
      vertex -5.26132 -2.4863 -5
      vertex -5.51978 -2.44537 -3
      vertex -5.26132 -2.4863 -3
    endloop
  endfacet
  facet normal 0.156434 0.987688 0
    outer loop
      vertex -5.51978 -2.44537 -3
      vertex -5.26132 -2.4863 -5
      vertex -5.51978 -2.44537 -5
    endloop
  endfacet
  facet normal 0.891006 0.453991 0
    outer loop
      vertex -7.16506 -1.25 -3
      vertex -7.28386 -1.01684 -5
      vertex -7.28386 -1.01684 -3
    endloop
  endfacet
  facet normal 0.891006 0.453991 0
    outer loop
      vertex -7.28386 -1.01684 -5
      vertex -7.16506 -1.25 -3
      vertex -7.16506 -1.25 -5
    endloop
  endfacet
  facet normal 0.998629 0.0523377 0
    outer loop
      vertex -7.4863 -0.261321 -3
      vertex -7.5 0 -5
      vertex -7.5 0 -3
    endloop
  endfacet
  facet normal 0.998629 0.0523377 0
    outer loop
      vertex -7.5 0 -5
      vertex -7.4863 -0.261321 -3
      vertex -7.4863 -0.261321 -5
    endloop
  endfacet
  facet normal -0.777146 -0.62932 0
    outer loop
      vertex -2.97746 1.46946 -5
      vertex -3.14214 1.67283 -3
      vertex -3.14214 1.67283 -5
    endloop
  endfacet
  facet normal -0.777146 -0.62932 0
    outer loop
      vertex -3.14214 1.67283 -3
      vertex -2.97746 1.46946 -5
      vertex -2.97746 1.46946 -3
    endloop
  endfacet
  facet normal -0.358368 -0.93358 0
    outer loop
      vertex -4.22746 2.37764 -5
      vertex -3.98316 2.28386 -3
      vertex -4.22746 2.37764 -3
    endloop
  endfacet
  facet normal -0.358368 -0.93358 -0
    outer loop
      vertex -3.98316 2.28386 -3
      vertex -4.22746 2.37764 -5
      vertex -3.98316 2.28386 -5
    endloop
  endfacet
  facet normal -0.544638 -0.838671 0
    outer loop
      vertex -3.75 2.16506 -5
      vertex -3.53054 2.02254 -3
      vertex -3.75 2.16506 -3
    endloop
  endfacet
  facet normal -0.544638 -0.838671 -0
    outer loop
      vertex -3.53054 2.02254 -3
      vertex -3.75 2.16506 -5
      vertex -3.53054 2.02254 -5
    endloop
  endfacet
  facet normal 0.707107 -0.707107 0
    outer loop
      vertex -6.85786 1.67283 -3
      vertex -6.67283 1.85786 -5
      vertex -6.67283 1.85786 -3
    endloop
  endfacet
  facet normal 0.707107 -0.707107 0
    outer loop
      vertex -6.67283 1.85786 -5
      vertex -6.85786 1.67283 -3
      vertex -6.85786 1.67283 -5
    endloop
  endfacet
  facet normal 0.93358 -0.358368 0
    outer loop
      vertex -7.37764 0.772542 -3
      vertex -7.28386 1.01684 -5
      vertex -7.28386 1.01684 -3
    endloop
  endfacet
  facet normal 0.93358 -0.358368 0
    outer loop
      vertex -7.28386 1.01684 -5
      vertex -7.37764 0.772542 -3
      vertex -7.37764 0.772542 -5
    endloop
  endfacet
  facet normal 0.54464 -0.83867 0
    outer loop
      vertex -6.46946 2.02254 -5
      vertex -6.25 2.16506 -3
      vertex -6.46946 2.02254 -3
    endloop
  endfacet
  facet normal 0.54464 -0.83867 0
    outer loop
      vertex -6.25 2.16506 -3
      vertex -6.46946 2.02254 -5
      vertex -6.25 2.16506 -5
    endloop
  endfacet
  facet normal 0.358368 -0.93358 0
    outer loop
      vertex -6.01684 2.28386 -5
      vertex -5.77254 2.37764 -3
      vertex -6.01684 2.28386 -3
    endloop
  endfacet
  facet normal 0.358368 -0.93358 0
    outer loop
      vertex -5.77254 2.37764 -3
      vertex -6.01684 2.28386 -5
      vertex -5.77254 2.37764 -5
    endloop
  endfacet
  facet normal -0.156434 0.987688 0
    outer loop
      vertex -4.48022 -2.44537 -5
      vertex -4.73868 -2.4863 -3
      vertex -4.48022 -2.44537 -3
    endloop
  endfacet
  facet normal -0.156434 0.987688 0
    outer loop
      vertex -4.73868 -2.4863 -3
      vertex -4.48022 -2.44537 -5
      vertex -4.73868 -2.4863 -5
    endloop
  endfacet
  facet normal -0.358368 0.93358 0
    outer loop
      vertex -3.98316 -2.28386 -5
      vertex -4.22746 -2.37764 -3
      vertex -3.98316 -2.28386 -3
    endloop
  endfacet
  facet normal -0.358368 0.93358 0
    outer loop
      vertex -4.22746 -2.37764 -3
      vertex -3.98316 -2.28386 -5
      vertex -4.22746 -2.37764 -5
    endloop
  endfacet
  facet normal -0.93358 0.358368 0
    outer loop
      vertex -2.71614 -1.01684 -5
      vertex -2.62236 -0.772542 -3
      vertex -2.62236 -0.772542 -5
    endloop
  endfacet
  facet normal -0.93358 0.358368 0
    outer loop
      vertex -2.62236 -0.772542 -3
      vertex -2.71614 -1.01684 -5
      vertex -2.71614 -1.01684 -3
    endloop
  endfacet
  facet normal -0.987688 0.156434 0
    outer loop
      vertex -2.55463 -0.519779 -5
      vertex -2.51369 -0.261321 -3
      vertex -2.51369 -0.261321 -5
    endloop
  endfacet
  facet normal -0.987688 0.156434 0
    outer loop
      vertex -2.51369 -0.261321 -3
      vertex -2.55463 -0.519779 -5
      vertex -2.55463 -0.519779 -3
    endloop
  endfacet
  facet normal 0.45399 0.891007 -0
    outer loop
      vertex -6.01684 -2.28386 -5
      vertex -6.25 -2.16506 -3
      vertex -6.01684 -2.28386 -3
    endloop
  endfacet
  facet normal 0.45399 0.891007 0
    outer loop
      vertex -6.25 -2.16506 -3
      vertex -6.01684 -2.28386 -5
      vertex -6.25 -2.16506 -5
    endloop
  endfacet
  facet normal 0.258821 0.965925 -0
    outer loop
      vertex -5.51978 -2.44537 -5
      vertex -5.77254 -2.37764 -3
      vertex -5.51978 -2.44537 -3
    endloop
  endfacet
  facet normal 0.258821 0.965925 0
    outer loop
      vertex -5.77254 -2.37764 -3
      vertex -5.51978 -2.44537 -5
      vertex -5.77254 -2.37764 -5
    endloop
  endfacet
  facet normal 0.0523377 0.998629 -0
    outer loop
      vertex -5 -2.5 -5
      vertex -5.26132 -2.4863 -3
      vertex -5 -2.5 -3
    endloop
  endfacet
  facet normal 0.0523377 0.998629 0
    outer loop
      vertex -5.26132 -2.4863 -3
      vertex -5 -2.5 -5
      vertex -5.26132 -2.4863 -5
    endloop
  endfacet
  facet normal 0.838671 0.544638 0
    outer loop
      vertex -7.02254 -1.46946 -3
      vertex -7.16506 -1.25 -5
      vertex -7.16506 -1.25 -3
    endloop
  endfacet
  facet normal 0.838671 0.544638 0
    outer loop
      vertex -7.16506 -1.25 -5
      vertex -7.02254 -1.46946 -3
      vertex -7.02254 -1.46946 -5
    endloop
  endfacet
  facet normal 0.93358 0.358368 0
    outer loop
      vertex -7.28386 -1.01684 -3
      vertex -7.37764 -0.772542 -5
      vertex -7.37764 -0.772542 -3
    endloop
  endfacet
  facet normal 0.93358 0.358368 0
    outer loop
      vertex -7.37764 -0.772542 -5
      vertex -7.28386 -1.01684 -3
      vertex -7.28386 -1.01684 -5
    endloop
  endfacet
  facet normal 0.987688 0.156434 0
    outer loop
      vertex -7.44537 -0.519779 -3
      vertex -7.4863 -0.261321 -5
      vertex -7.4863 -0.261321 -3
    endloop
  endfacet
  facet normal 0.987688 0.156434 0
    outer loop
      vertex -7.4863 -0.261321 -5
      vertex -7.44537 -0.519779 -3
      vertex -7.44537 -0.519779 -5
    endloop
  endfacet
endsolid OpenSCAD_Model
